<?xml version="1.0" encoding="UTF-8"?>
<!DOCTYPE svg PUBLIC "-//W3C//DTD SVG 1.1//EN" "http://www.w3.org/Graphics/SVG/1.1/DTD/svg11.dtd">
<!-- Creator: CorelDRAW 2020 (64-Bit) -->
<svg xmlns="http://www.w3.org/2000/svg" xml:space="preserve" width="166.953mm" height="167.539mm" version="1.1" style="shape-rendering:geometricPrecision; text-rendering:geometricPrecision; image-rendering:optimizeQuality; fill-rule:evenodd; clip-rule:evenodd"
viewBox="0 0 13950.01 13998.93"
 xmlns:xlink="http://www.w3.org/1999/xlink"
 xmlns:xodm="http://www.corel.com/coreldraw/odm/2003">
 <defs>
  <style type="text/css">
   <![CDATA[
    .fil1 {fill:#4380C2;fill-rule:nonzero}
    .fil2 {fill:#3866AF;fill-rule:nonzero}
    .fil0 {fill:#253A51;fill-rule:nonzero}
   ]]>
  </style>
 </defs>
 <g id="Layer_x0020_1">
  <metadata id="CorelCorpID_0Corel-Layer"/>
  <path class="fil0" d="M10097.43 8461.85l0 883.04c0,543.15 440.34,983.42 983.56,983.42l2112.38 0c152.82,0 276.76,123.88 276.76,276.77l0 2311.79c0,597.59 -484.5,1082.06 -1082.09,1082.06l-11305.93 0c-597.63,0 -1082.1,-484.47 -1082.1,-1082.06l0 -8027.01c0,-597.63 484.48,-1082.11 1082.1,-1082.11l11305.93 0c597.59,0 1082.09,484.48 1082.09,1082.11l0 2311.8c0,152.81 -123.94,276.69 -276.76,276.69l-2112.38 0c-543.22,0 -983.56,440.35 -983.56,983.51z"/>
  <path class="fil0" d="M11449.28 9339.01c-240.83,0 -435.82,-195.04 -435.82,-435.65 0,-240.61 195,-435.73 435.82,-435.73 240.55,0 435.55,195.12 435.55,435.73 0,240.61 -195,435.65 -435.55,435.65zm2065.32 -1589.41l-2429.95 0c-395.41,0 -715.97,320.55 -715.97,716.05l0 875.44c0,395.41 320.56,715.94 715.97,715.94l2429.95 0c240.56,0 435.41,-194.95 435.41,-435.45l0 -1436.53c0,-240.51 -194.85,-435.46 -435.41,-435.46z"/>
  <path class="fil1" d="M10936.17 1620.22l-7963.32 1942.95 8668.98 0 0 -1388.75c0,-369.78 -346.46,-641.93 -705.66,-554.2z"/>
  <path class="fil2" d="M9780.23 1622.93l-7951.98 1940.24 6844.33 -3498.55c328.13,-170.58 729.32,11.53 817.12,370.73l290.53 1187.59z"/>
 </g>
</svg>
